<svg xmlns="http://www.w3.org/2000/svg" xmlns:xlink="http://www.w3.org/1999/xlink" width="580" zoomAndPan="magnify" viewBox="0 0 434.88 123.750003" height="165" preserveAspectRatio="xMidYMid meet" version="1.0"><defs><g/><clipPath id="843cbb713a"><path d="M 52.296875 0 L 94.609375 0 L 94.609375 42.3125 L 52.296875 42.3125 Z M 52.296875 0 " clip-rule="nonzero"/></clipPath><clipPath id="57895f353f"><path d="M 73.453125 0 C 61.769531 0 52.296875 9.472656 52.296875 21.15625 C 52.296875 32.839844 61.769531 42.3125 73.453125 42.3125 C 85.136719 42.3125 94.609375 32.839844 94.609375 21.15625 C 94.609375 9.472656 85.136719 0 73.453125 0 Z M 73.453125 0 " clip-rule="nonzero"/></clipPath><clipPath id="10ed911f6b"><path d="M 33.75 14.933594 L 377.015625 14.933594 L 377.015625 85.582031 L 33.75 85.582031 Z M 33.75 14.933594 " clip-rule="nonzero"/></clipPath></defs><g clip-path="url(#843cbb713a)"><g clip-path="url(#57895f353f)"><path fill="#00bf63" d="M 52.296875 0 L 94.609375 0 L 94.609375 42.3125 L 52.296875 42.3125 Z M 52.296875 0 " fill-opacity="1" fill-rule="nonzero"/></g></g><g clip-path="url(#10ed911f6b)"><path fill="#0c2043" d="M 33.75 14.933594 L 377.058594 14.933594 L 377.058594 85.582031 L 33.75 85.582031 Z M 33.75 14.933594 " fill-opacity="1" fill-rule="nonzero"/></g><g fill="#0c2043" fill-opacity="1"><g transform="translate(110.193276, 115.066378)"><g><path d="M 23.546875 -22.734375 L 23.546875 0 L 18.28125 0 L 18.28125 -9.328125 L 7.953125 -9.328125 L 7.953125 0 L 2.703125 0 L 2.703125 -22.734375 L 7.953125 -22.734375 L 7.953125 -13.765625 L 18.28125 -13.765625 L 18.28125 -22.734375 Z M 23.546875 -22.734375 "/></g></g></g><g fill="#0c2043" fill-opacity="1"><g transform="translate(134.950384, 115.066378)"><g><path d="M 10.65625 0.265625 C 8.8125 0.265625 7.160156 -0.117188 5.703125 -0.890625 C 4.242188 -1.660156 3.101562 -2.726562 2.28125 -4.09375 C 1.457031 -5.457031 1.046875 -7.003906 1.046875 -8.734375 C 1.046875 -10.472656 1.457031 -12.023438 2.28125 -13.390625 C 3.101562 -14.753906 4.242188 -15.816406 5.703125 -16.578125 C 7.160156 -17.347656 8.8125 -17.734375 10.65625 -17.734375 C 12.5 -17.734375 14.144531 -17.347656 15.59375 -16.578125 C 17.039062 -15.816406 18.175781 -14.753906 19 -13.390625 C 19.820312 -12.023438 20.234375 -10.472656 20.234375 -8.734375 C 20.234375 -7.003906 19.820312 -5.457031 19 -4.09375 C 18.175781 -2.726562 17.039062 -1.660156 15.59375 -0.890625 C 14.144531 -0.117188 12.5 0.265625 10.65625 0.265625 Z M 10.65625 -3.890625 C 11.957031 -3.890625 13.023438 -4.328125 13.859375 -5.203125 C 14.691406 -6.085938 15.109375 -7.265625 15.109375 -8.734375 C 15.109375 -10.210938 14.691406 -11.390625 13.859375 -12.265625 C 13.023438 -13.140625 11.957031 -13.578125 10.65625 -13.578125 C 9.351562 -13.578125 8.28125 -13.140625 7.4375 -12.265625 C 6.59375 -11.390625 6.171875 -10.210938 6.171875 -8.734375 C 6.171875 -7.265625 6.59375 -6.085938 7.4375 -5.203125 C 8.28125 -4.328125 9.351562 -3.890625 10.65625 -3.890625 Z M 10.65625 -3.890625 "/></g></g></g><g fill="#0c2043" fill-opacity="1"><g transform="translate(154.736526, 115.066378)"><g><path d="M 24.71875 -17.734375 C 26.90625 -17.734375 28.640625 -17.085938 29.921875 -15.796875 C 31.210938 -14.515625 31.859375 -12.582031 31.859375 -10 L 31.859375 0 L 26.796875 0 L 26.796875 -9.21875 C 26.796875 -10.601562 26.507812 -11.632812 25.9375 -12.3125 C 25.363281 -13 24.546875 -13.34375 23.484375 -13.34375 C 22.296875 -13.34375 21.351562 -12.957031 20.65625 -12.1875 C 19.96875 -11.425781 19.625 -10.285156 19.625 -8.765625 L 19.625 0 L 14.546875 0 L 14.546875 -9.21875 C 14.546875 -11.96875 13.441406 -13.34375 11.234375 -13.34375 C 10.066406 -13.34375 9.132812 -12.957031 8.4375 -12.1875 C 7.75 -11.425781 7.40625 -10.285156 7.40625 -8.765625 L 7.40625 0 L 2.34375 0 L 2.34375 -17.46875 L 7.171875 -17.46875 L 7.171875 -15.46875 C 7.828125 -16.195312 8.625 -16.753906 9.5625 -17.140625 C 10.507812 -17.535156 11.546875 -17.734375 12.671875 -17.734375 C 13.898438 -17.734375 15.015625 -17.488281 16.015625 -17 C 17.015625 -16.519531 17.816406 -15.8125 18.421875 -14.875 C 19.128906 -15.78125 20.03125 -16.484375 21.125 -16.984375 C 22.21875 -17.484375 23.414062 -17.734375 24.71875 -17.734375 Z M 24.71875 -17.734375 "/></g></g></g><g fill="#0c2043" fill-opacity="1"><g transform="translate(187.32372, 115.066378)"><g><path d="M 19.453125 -8.671875 C 19.453125 -8.609375 19.421875 -8.15625 19.359375 -7.3125 L 6.140625 -7.3125 C 6.378906 -6.226562 6.941406 -5.367188 7.828125 -4.734375 C 8.710938 -4.109375 9.816406 -3.796875 11.140625 -3.796875 C 12.046875 -3.796875 12.851562 -3.929688 13.5625 -4.203125 C 14.269531 -4.472656 14.925781 -4.898438 15.53125 -5.484375 L 18.21875 -2.5625 C 16.570312 -0.675781 14.171875 0.265625 11.015625 0.265625 C 9.046875 0.265625 7.300781 -0.117188 5.78125 -0.890625 C 4.269531 -1.660156 3.101562 -2.726562 2.28125 -4.09375 C 1.457031 -5.457031 1.046875 -7.003906 1.046875 -8.734375 C 1.046875 -10.441406 1.445312 -11.984375 2.25 -13.359375 C 3.0625 -14.742188 4.175781 -15.816406 5.59375 -16.578125 C 7.019531 -17.347656 8.609375 -17.734375 10.359375 -17.734375 C 12.066406 -17.734375 13.613281 -17.363281 15 -16.625 C 16.394531 -15.894531 17.484375 -14.84375 18.265625 -13.46875 C 19.054688 -12.09375 19.453125 -10.492188 19.453125 -8.671875 Z M 10.390625 -13.90625 C 9.242188 -13.90625 8.28125 -13.578125 7.5 -12.921875 C 6.71875 -12.273438 6.242188 -11.390625 6.078125 -10.265625 L 14.6875 -10.265625 C 14.507812 -11.367188 14.03125 -12.25 13.25 -12.90625 C 12.46875 -13.570312 11.515625 -13.90625 10.390625 -13.90625 Z M 10.390625 -13.90625 "/></g></g></g><g fill="#0c2043" fill-opacity="1"><g transform="translate(206.330101, 115.066378)"><g/></g></g><g fill="#0c2043" fill-opacity="1"><g transform="translate(214.029955, 115.066378)"><g><path d="M 10.171875 0.390625 C 8.367188 0.390625 6.628906 0.144531 4.953125 -0.34375 C 3.273438 -0.832031 1.925781 -1.460938 0.90625 -2.234375 L 2.703125 -6.203125 C 3.671875 -5.484375 4.828125 -4.90625 6.171875 -4.46875 C 7.515625 -4.039062 8.859375 -3.828125 10.203125 -3.828125 C 11.691406 -3.828125 12.789062 -4.050781 13.5 -4.5 C 14.21875 -4.945312 14.578125 -5.535156 14.578125 -6.265625 C 14.578125 -6.804688 14.363281 -7.253906 13.9375 -7.609375 C 13.519531 -7.972656 12.984375 -8.257812 12.328125 -8.46875 C 11.671875 -8.6875 10.773438 -8.925781 9.640625 -9.1875 C 7.910156 -9.601562 6.492188 -10.015625 5.390625 -10.421875 C 4.285156 -10.835938 3.335938 -11.5 2.546875 -12.40625 C 1.753906 -13.3125 1.359375 -14.523438 1.359375 -16.046875 C 1.359375 -17.367188 1.71875 -18.566406 2.4375 -19.640625 C 3.15625 -20.710938 4.234375 -21.5625 5.671875 -22.1875 C 7.109375 -22.8125 8.867188 -23.125 10.953125 -23.125 C 12.398438 -23.125 13.816406 -22.953125 15.203125 -22.609375 C 16.585938 -22.265625 17.800781 -21.765625 18.84375 -21.109375 L 17.21875 -17.125 C 15.113281 -18.3125 13.015625 -18.90625 10.921875 -18.90625 C 9.441406 -18.90625 8.347656 -18.664062 7.640625 -18.1875 C 6.941406 -17.707031 6.59375 -17.082031 6.59375 -16.3125 C 6.59375 -15.53125 7 -14.945312 7.8125 -14.5625 C 8.625 -14.1875 9.863281 -13.816406 11.53125 -13.453125 C 13.257812 -13.035156 14.675781 -12.617188 15.78125 -12.203125 C 16.882812 -11.796875 17.832031 -11.148438 18.625 -10.265625 C 19.414062 -9.378906 19.8125 -8.175781 19.8125 -6.65625 C 19.8125 -5.351562 19.445312 -4.164062 18.71875 -3.09375 C 18 -2.03125 16.910156 -1.179688 15.453125 -0.546875 C 14.003906 0.078125 12.242188 0.390625 10.171875 0.390625 Z M 10.171875 0.390625 "/></g></g></g><g fill="#0c2043" fill-opacity="1"><g transform="translate(233.263761, 115.066378)"><g><path d="M 19.453125 -8.671875 C 19.453125 -8.609375 19.421875 -8.15625 19.359375 -7.3125 L 6.140625 -7.3125 C 6.378906 -6.226562 6.941406 -5.367188 7.828125 -4.734375 C 8.710938 -4.109375 9.816406 -3.796875 11.140625 -3.796875 C 12.046875 -3.796875 12.851562 -3.929688 13.5625 -4.203125 C 14.269531 -4.472656 14.925781 -4.898438 15.53125 -5.484375 L 18.21875 -2.5625 C 16.570312 -0.675781 14.171875 0.265625 11.015625 0.265625 C 9.046875 0.265625 7.300781 -0.117188 5.78125 -0.890625 C 4.269531 -1.660156 3.101562 -2.726562 2.28125 -4.09375 C 1.457031 -5.457031 1.046875 -7.003906 1.046875 -8.734375 C 1.046875 -10.441406 1.445312 -11.984375 2.25 -13.359375 C 3.0625 -14.742188 4.175781 -15.816406 5.59375 -16.578125 C 7.019531 -17.347656 8.609375 -17.734375 10.359375 -17.734375 C 12.066406 -17.734375 13.613281 -17.363281 15 -16.625 C 16.394531 -15.894531 17.484375 -14.84375 18.265625 -13.46875 C 19.054688 -12.09375 19.453125 -10.492188 19.453125 -8.671875 Z M 10.390625 -13.90625 C 9.242188 -13.90625 8.28125 -13.578125 7.5 -12.921875 C 6.71875 -12.273438 6.242188 -11.390625 6.078125 -10.265625 L 14.6875 -10.265625 C 14.507812 -11.367188 14.03125 -12.25 13.25 -12.90625 C 12.46875 -13.570312 11.515625 -13.90625 10.390625 -13.90625 Z M 10.390625 -13.90625 "/></g></g></g><g fill="#0c2043" fill-opacity="1"><g transform="translate(252.270143, 115.066378)"><g><path d="M 7.171875 -15.171875 C 7.785156 -16.015625 8.601562 -16.648438 9.625 -17.078125 C 10.65625 -17.515625 11.84375 -17.734375 13.1875 -17.734375 L 13.1875 -13.0625 C 12.625 -13.101562 12.242188 -13.125 12.046875 -13.125 C 10.597656 -13.125 9.460938 -12.71875 8.640625 -11.90625 C 7.816406 -11.09375 7.40625 -9.875 7.40625 -8.25 L 7.40625 0 L 2.34375 0 L 2.34375 -17.46875 L 7.171875 -17.46875 Z M 7.171875 -15.171875 "/></g></g></g><g fill="#0c2043" fill-opacity="1"><g transform="translate(264.778516, 115.066378)"><g><path d="M 19.6875 -17.46875 L 12.3125 0 L 7.078125 0 L -0.265625 -17.46875 L 4.96875 -17.46875 L 9.8125 -5.59375 L 14.8125 -17.46875 Z M 19.6875 -17.46875 "/></g></g></g><g fill="#0c2043" fill-opacity="1"><g transform="translate(282.71272, 115.066378)"><g><path d="M 2.34375 -17.46875 L 7.40625 -17.46875 L 7.40625 0 L 2.34375 0 Z M 4.875 -19.90625 C 3.945312 -19.90625 3.191406 -20.175781 2.609375 -20.71875 C 2.023438 -21.257812 1.734375 -21.929688 1.734375 -22.734375 C 1.734375 -23.535156 2.023438 -24.207031 2.609375 -24.75 C 3.191406 -25.289062 3.945312 -25.5625 4.875 -25.5625 C 5.8125 -25.5625 6.570312 -25.300781 7.15625 -24.78125 C 7.738281 -24.257812 8.03125 -23.613281 8.03125 -22.84375 C 8.03125 -21.988281 7.738281 -21.285156 7.15625 -20.734375 C 6.570312 -20.179688 5.8125 -19.90625 4.875 -19.90625 Z M 4.875 -19.90625 "/></g></g></g><g fill="#0c2043" fill-opacity="1"><g transform="translate(290.997397, 115.066378)"><g><path d="M 10.78125 0.265625 C 8.914062 0.265625 7.242188 -0.117188 5.765625 -0.890625 C 4.285156 -1.660156 3.128906 -2.726562 2.296875 -4.09375 C 1.460938 -5.457031 1.046875 -7.003906 1.046875 -8.734375 C 1.046875 -10.472656 1.460938 -12.023438 2.296875 -13.390625 C 3.128906 -14.753906 4.285156 -15.816406 5.765625 -16.578125 C 7.242188 -17.347656 8.914062 -17.734375 10.78125 -17.734375 C 12.625 -17.734375 14.234375 -17.347656 15.609375 -16.578125 C 16.984375 -15.816406 17.984375 -14.71875 18.609375 -13.28125 L 14.6875 -11.171875 C 13.769531 -12.773438 12.457031 -13.578125 10.75 -13.578125 C 9.425781 -13.578125 8.332031 -13.144531 7.46875 -12.28125 C 6.601562 -11.414062 6.171875 -10.234375 6.171875 -8.734375 C 6.171875 -7.242188 6.601562 -6.0625 7.46875 -5.1875 C 8.332031 -4.320312 9.425781 -3.890625 10.75 -3.890625 C 12.476562 -3.890625 13.789062 -4.691406 14.6875 -6.296875 L 18.609375 -4.15625 C 17.984375 -2.769531 16.984375 -1.6875 15.609375 -0.90625 C 14.234375 -0.125 12.625 0.265625 10.78125 0.265625 Z M 10.78125 0.265625 "/></g></g></g><g fill="#0c2043" fill-opacity="1"><g transform="translate(308.704177, 115.066378)"><g><path d="M 19.453125 -8.671875 C 19.453125 -8.609375 19.421875 -8.15625 19.359375 -7.3125 L 6.140625 -7.3125 C 6.378906 -6.226562 6.941406 -5.367188 7.828125 -4.734375 C 8.710938 -4.109375 9.816406 -3.796875 11.140625 -3.796875 C 12.046875 -3.796875 12.851562 -3.929688 13.5625 -4.203125 C 14.269531 -4.472656 14.925781 -4.898438 15.53125 -5.484375 L 18.21875 -2.5625 C 16.570312 -0.675781 14.171875 0.265625 11.015625 0.265625 C 9.046875 0.265625 7.300781 -0.117188 5.78125 -0.890625 C 4.269531 -1.660156 3.101562 -2.726562 2.28125 -4.09375 C 1.457031 -5.457031 1.046875 -7.003906 1.046875 -8.734375 C 1.046875 -10.441406 1.445312 -11.984375 2.25 -13.359375 C 3.0625 -14.742188 4.175781 -15.816406 5.59375 -16.578125 C 7.019531 -17.347656 8.609375 -17.734375 10.359375 -17.734375 C 12.066406 -17.734375 13.613281 -17.363281 15 -16.625 C 16.394531 -15.894531 17.484375 -14.84375 18.265625 -13.46875 C 19.054688 -12.09375 19.453125 -10.492188 19.453125 -8.671875 Z M 10.390625 -13.90625 C 9.242188 -13.90625 8.28125 -13.578125 7.5 -12.921875 C 6.71875 -12.273438 6.242188 -11.390625 6.078125 -10.265625 L 14.6875 -10.265625 C 14.507812 -11.367188 14.03125 -12.25 13.25 -12.90625 C 12.46875 -13.570312 11.515625 -13.90625 10.390625 -13.90625 Z M 10.390625 -13.90625 "/></g></g></g><g fill="#0c2043" fill-opacity="1"><g transform="translate(327.710558, 115.066378)"><g><path d="M 8.21875 0.265625 C 6.769531 0.265625 5.351562 0.0859375 3.96875 -0.265625 C 2.582031 -0.628906 1.476562 -1.082031 0.65625 -1.625 L 2.34375 -5.265625 C 3.125 -4.765625 4.066406 -4.359375 5.171875 -4.046875 C 6.273438 -3.734375 7.351562 -3.578125 8.40625 -3.578125 C 10.550781 -3.578125 11.625 -4.109375 11.625 -5.171875 C 11.625 -5.660156 11.332031 -6.015625 10.75 -6.234375 C 10.164062 -6.453125 9.269531 -6.640625 8.0625 -6.796875 C 6.625 -7.003906 5.441406 -7.25 4.515625 -7.53125 C 3.585938 -7.8125 2.78125 -8.3125 2.09375 -9.03125 C 1.414062 -9.75 1.078125 -10.765625 1.078125 -12.078125 C 1.078125 -13.179688 1.394531 -14.160156 2.03125 -15.015625 C 2.664062 -15.878906 3.59375 -16.546875 4.8125 -17.015625 C 6.039062 -17.492188 7.488281 -17.734375 9.15625 -17.734375 C 10.394531 -17.734375 11.625 -17.597656 12.84375 -17.328125 C 14.070312 -17.054688 15.085938 -16.679688 15.890625 -16.203125 L 14.203125 -12.609375 C 12.660156 -13.472656 10.976562 -13.90625 9.15625 -13.90625 C 8.070312 -13.90625 7.257812 -13.753906 6.71875 -13.453125 C 6.175781 -13.148438 5.90625 -12.757812 5.90625 -12.28125 C 5.90625 -11.738281 6.195312 -11.359375 6.78125 -11.140625 C 7.375 -10.921875 8.304688 -10.71875 9.578125 -10.53125 C 11.015625 -10.289062 12.1875 -10.035156 13.09375 -9.765625 C 14 -9.492188 14.785156 -9 15.453125 -8.28125 C 16.128906 -7.570312 16.46875 -6.578125 16.46875 -5.296875 C 16.46875 -4.210938 16.140625 -3.25 15.484375 -2.40625 C 14.835938 -1.5625 13.890625 -0.90625 12.640625 -0.4375 C 11.398438 0.03125 9.925781 0.265625 8.21875 0.265625 Z M 8.21875 0.265625 "/></g></g></g><g fill="#ffffff" fill-opacity="1"><g transform="translate(107.076489, 66.415533)"><g><path d="M 35.90625 0 L 35.859375 -20.953125 L 25.578125 -3.6875 L 21.9375 -3.6875 L 11.71875 -20.5 L 11.71875 0 L 4.140625 0 L 4.140625 -34.90625 L 10.828125 -34.90625 L 23.890625 -13.21875 L 36.765625 -34.90625 L 43.390625 -34.90625 L 43.484375 0 Z M 35.90625 0 "/></g></g></g><g fill="#ffffff" fill-opacity="1"><g transform="translate(152.414126, 66.415533)"><g><path d="M 14.40625 -27.234375 C 18.5625 -27.234375 21.753906 -26.242188 23.984375 -24.265625 C 26.210938 -22.285156 27.328125 -19.300781 27.328125 -15.3125 L 27.328125 0 L 20.046875 0 L 20.046875 -3.34375 C 18.585938 -0.84375 15.863281 0.40625 11.875 0.40625 C 9.8125 0.40625 8.019531 0.0546875 6.5 -0.640625 C 4.988281 -1.347656 3.832031 -2.316406 3.03125 -3.546875 C 2.238281 -4.773438 1.84375 -6.171875 1.84375 -7.734375 C 1.84375 -10.222656 2.78125 -12.179688 4.65625 -13.609375 C 6.539062 -15.046875 9.441406 -15.765625 13.359375 -15.765625 L 19.546875 -15.765625 C 19.546875 -17.453125 19.03125 -18.753906 18 -19.671875 C 16.96875 -20.585938 15.421875 -21.046875 13.359375 -21.046875 C 11.929688 -21.046875 10.523438 -20.820312 9.140625 -20.375 C 7.765625 -19.925781 6.597656 -19.316406 5.640625 -18.546875 L 2.84375 -23.984375 C 4.300781 -25.015625 6.050781 -25.8125 8.09375 -26.375 C 10.144531 -26.945312 12.25 -27.234375 14.40625 -27.234375 Z M 13.8125 -4.84375 C 15.144531 -4.84375 16.328125 -5.148438 17.359375 -5.765625 C 18.390625 -6.378906 19.117188 -7.285156 19.546875 -8.484375 L 19.546875 -11.21875 L 14.21875 -11.21875 C 11.019531 -11.21875 9.421875 -10.171875 9.421875 -8.078125 C 9.421875 -7.078125 9.8125 -6.285156 10.59375 -5.703125 C 11.375 -5.128906 12.445312 -4.84375 13.8125 -4.84375 Z M 13.8125 -4.84375 "/></g></g></g><g fill="#ffffff" fill-opacity="1"><g transform="translate(180.893392, 66.415533)"><g><path d="M 3.59375 -26.828125 L 11.375 -26.828125 L 11.375 0 L 3.59375 0 Z M 7.46875 -30.578125 C 6.039062 -30.578125 4.878906 -30.988281 3.984375 -31.8125 C 3.085938 -32.644531 2.640625 -33.675781 2.640625 -34.90625 C 2.640625 -36.144531 3.085938 -37.175781 3.984375 -38 C 4.878906 -38.832031 6.039062 -39.25 7.46875 -39.25 C 8.90625 -39.25 10.070312 -38.847656 10.96875 -38.046875 C 11.863281 -37.253906 12.3125 -36.257812 12.3125 -35.0625 C 12.3125 -33.757812 11.863281 -32.6875 10.96875 -31.84375 C 10.070312 -31 8.90625 -30.578125 7.46875 -30.578125 Z M 7.46875 -30.578125 "/></g></g></g><g fill="#ffffff" fill-opacity="1"><g transform="translate(193.611575, 66.415533)"><g><path d="M 30.921875 -37 L 30.921875 0 L 23.484375 0 L 23.484375 -3.09375 C 21.554688 -0.757812 18.765625 0.40625 15.109375 0.40625 C 12.585938 0.40625 10.300781 -0.160156 8.25 -1.296875 C 6.207031 -2.429688 4.601562 -4.046875 3.4375 -6.140625 C 2.28125 -8.234375 1.703125 -10.660156 1.703125 -13.421875 C 1.703125 -16.179688 2.28125 -18.609375 3.4375 -20.703125 C 4.601562 -22.796875 6.207031 -24.40625 8.25 -25.53125 C 10.300781 -26.664062 12.585938 -27.234375 15.109375 -27.234375 C 18.535156 -27.234375 21.210938 -26.148438 23.140625 -23.984375 L 23.140625 -37 Z M 16.453125 -5.984375 C 18.421875 -5.984375 20.050781 -6.65625 21.34375 -8 C 22.644531 -9.351562 23.296875 -11.160156 23.296875 -13.421875 C 23.296875 -15.679688 22.644531 -17.484375 21.34375 -18.828125 C 20.050781 -20.171875 18.421875 -20.84375 16.453125 -20.84375 C 14.460938 -20.84375 12.816406 -20.171875 11.515625 -18.828125 C 10.222656 -17.484375 9.578125 -15.679688 9.578125 -13.421875 C 9.578125 -11.160156 10.222656 -9.351562 11.515625 -8 C 12.816406 -6.65625 14.460938 -5.984375 16.453125 -5.984375 Z M 16.453125 -5.984375 "/></g></g></g><g fill="#ffffff" fill-opacity="1"><g transform="translate(225.831589, 66.415533)"><g><path d="M 56.90625 -34.90625 L 45.484375 0 L 36.8125 0 L 29.125 -23.640625 L 21.203125 0 L 12.5625 0 L 1.09375 -34.90625 L 9.46875 -34.90625 L 17.359375 -10.375 L 25.578125 -34.90625 L 33.0625 -34.90625 L 41.046875 -10.171875 L 49.171875 -34.90625 Z M 56.90625 -34.90625 "/></g></g></g><g fill="#ffffff" fill-opacity="1"><g transform="translate(281.543606, 66.415533)"><g><path d="M 14.40625 -27.234375 C 18.5625 -27.234375 21.753906 -26.242188 23.984375 -24.265625 C 26.210938 -22.285156 27.328125 -19.300781 27.328125 -15.3125 L 27.328125 0 L 20.046875 0 L 20.046875 -3.34375 C 18.585938 -0.84375 15.863281 0.40625 11.875 0.40625 C 9.8125 0.40625 8.019531 0.0546875 6.5 -0.640625 C 4.988281 -1.347656 3.832031 -2.316406 3.03125 -3.546875 C 2.238281 -4.773438 1.84375 -6.171875 1.84375 -7.734375 C 1.84375 -10.222656 2.78125 -12.179688 4.65625 -13.609375 C 6.539062 -15.046875 9.441406 -15.765625 13.359375 -15.765625 L 19.546875 -15.765625 C 19.546875 -17.453125 19.03125 -18.753906 18 -19.671875 C 16.96875 -20.585938 15.421875 -21.046875 13.359375 -21.046875 C 11.929688 -21.046875 10.523438 -20.820312 9.140625 -20.375 C 7.765625 -19.925781 6.597656 -19.316406 5.640625 -18.546875 L 2.84375 -23.984375 C 4.300781 -25.015625 6.050781 -25.8125 8.09375 -26.375 C 10.144531 -26.945312 12.25 -27.234375 14.40625 -27.234375 Z M 13.8125 -4.84375 C 15.144531 -4.84375 16.328125 -5.148438 17.359375 -5.765625 C 18.390625 -6.378906 19.117188 -7.285156 19.546875 -8.484375 L 19.546875 -11.21875 L 14.21875 -11.21875 C 11.019531 -11.21875 9.421875 -10.171875 9.421875 -8.078125 C 9.421875 -7.078125 9.8125 -6.285156 10.59375 -5.703125 C 11.375 -5.128906 12.445312 -4.84375 13.8125 -4.84375 Z M 13.8125 -4.84375 "/></g></g></g><g fill="#ffffff" fill-opacity="1"><g transform="translate(310.022865, 66.415533)"><g><path d="M 30.21875 -26.828125 L 18.90625 0 L 10.875 0 L -0.40625 -26.828125 L 7.625 -26.828125 L 15.0625 -8.578125 L 22.75 -26.828125 Z M 30.21875 -26.828125 "/></g></g></g><g fill="#ffffff" fill-opacity="1"><g transform="translate(337.554461, 66.415533)"><g><path d="M 29.875 -13.3125 C 29.875 -13.21875 29.820312 -12.519531 29.71875 -11.21875 L 9.421875 -11.21875 C 9.785156 -9.5625 10.648438 -8.25 12.015625 -7.28125 C 13.378906 -6.3125 15.078125 -5.828125 17.109375 -5.828125 C 18.503906 -5.828125 19.738281 -6.035156 20.8125 -6.453125 C 21.894531 -6.867188 22.90625 -7.523438 23.84375 -8.421875 L 27.984375 -3.9375 C 25.453125 -1.039062 21.757812 0.40625 16.90625 0.40625 C 13.882812 0.40625 11.207031 -0.179688 8.875 -1.359375 C 6.550781 -2.546875 4.753906 -4.1875 3.484375 -6.28125 C 2.222656 -8.375 1.59375 -10.753906 1.59375 -13.421875 C 1.59375 -16.046875 2.21875 -18.410156 3.46875 -20.515625 C 4.71875 -22.628906 6.429688 -24.273438 8.609375 -25.453125 C 10.785156 -26.640625 13.21875 -27.234375 15.90625 -27.234375 C 18.53125 -27.234375 20.90625 -26.664062 23.03125 -25.53125 C 25.164062 -24.40625 26.835938 -22.785156 28.046875 -20.671875 C 29.265625 -18.554688 29.875 -16.101562 29.875 -13.3125 Z M 15.953125 -21.34375 C 14.191406 -21.34375 12.710938 -20.84375 11.515625 -19.84375 C 10.316406 -18.851562 9.585938 -17.492188 9.328125 -15.765625 L 22.546875 -15.765625 C 22.273438 -17.453125 21.539062 -18.800781 20.34375 -19.8125 C 19.144531 -20.832031 17.679688 -21.34375 15.953125 -21.34375 Z M 15.953125 -21.34375 "/></g></g></g></svg>