<svg xmlns="http://www.w3.org/2000/svg" xmlns:xlink="http://www.w3.org/1999/xlink" width="500" zoomAndPan="magnify" viewBox="0 0 375 374.999991" height="500" preserveAspectRatio="xMidYMid meet" version="1.0"><defs><clipPath id="704576d918"><path d="M 198 176 L 342 176 L 342 341.714844 L 198 341.714844 Z M 198 176 " clip-rule="nonzero"/></clipPath><clipPath id="4e2f90bf56"><path d="M 0 40.964844 L 375 40.964844 L 375 323 L 0 323 Z M 0 40.964844 " clip-rule="nonzero"/></clipPath></defs><g clip-path="url(#704576d918)"><path fill="#252225" d="M 341.316406 276.726562 L 198.25 341.714844 L 198.25 176.320312 L 289.148438 221.542969 Z M 341.316406 276.726562 " fill-opacity="1" fill-rule="nonzero"/></g><g clip-path="url(#4e2f90bf56)"><path fill="#e2bc2c" d="M 0.167969 40.964844 L 0.167969 159.082031 L 374.832031 322.898438 L 374.832031 211.421875 Z M 0.167969 40.964844 " fill-opacity="1" fill-rule="nonzero"/></g><path fill="#e6e7e8" d="M 191.769531 168.414062 L 277.765625 207.46875 L 277.765625 108.011719 L 191.769531 68.796875 Z M 191.769531 168.414062 " fill-opacity="1" fill-rule="nonzero"/><path fill="#ffffff" d="M 313.019531 256.488281 L 170.109375 321.476562 L 170.109375 156.078125 L 313.019531 90.933594 Z M 313.019531 256.488281 " fill-opacity="1" fill-rule="nonzero"/></svg>