<svg xmlns="http://www.w3.org/2000/svg" xmlns:xlink="http://www.w3.org/1999/xlink" width="500" zoomAndPan="magnify" viewBox="0 0 375 374.999991" height="500" preserveAspectRatio="xMidYMid meet" version="1.0"><defs><clipPath id="9db7072da2"><path d="M 227.960938 197.789062 L 278 197.789062 L 278 282 L 227.960938 282 Z M 227.960938 197.789062 " clip-rule="nonzero"/></clipPath><clipPath id="3584d8b361"><path d="M 31 197.039062 L 81.855469 197.039062 L 81.855469 282 L 31 282 Z M 31 197.039062 " clip-rule="nonzero"/></clipPath><clipPath id="9eaf79f8aa"><path d="M 195 197.789062 L 245 197.789062 L 245 282 L 195 282 Z M 195 197.789062 " clip-rule="nonzero"/></clipPath><clipPath id="298d3d0983"><path d="M 0.183594 197.789062 L 48 197.789062 L 48 282 L 0.183594 282 Z M 0.183594 197.789062 " clip-rule="nonzero"/></clipPath></defs><path fill="#daa528" d="M 96.34375 226.292969 L 145.488281 141.179688 L 146.644531 141.851562 L 97.5 226.960938 L 96.34375 226.292969 " fill-opacity="1" fill-rule="nonzero"/><path fill="#daa528" d="M 194.628906 56.070312 L 228.550781 0 L 195.789062 56.742188 L 194.628906 56.070312 " fill-opacity="1" fill-rule="nonzero"/><path fill="#daa528" d="M 178.25 85.109375 L 161.292969 55.738281 L 196.367188 55.738281 L 178.832031 86.113281 Z M 163.605469 57.074219 L 178.828125 83.441406 L 194.054688 57.074219 L 163.605469 57.074219 " fill-opacity="1" fill-rule="nonzero"/><path fill="#daa528" d="M 276.53125 27.695312 L 292.527344 0 L 277.691406 28.367188 L 276.53125 27.695312 " fill-opacity="1" fill-rule="nonzero"/><path fill="#daa528" d="M 277.109375 29.367188 L 261.886719 55.738281 L 292.335938 55.738281 Z M 260.152344 56.074219 L 277.109375 26.695312 L 294.652344 57.070312 L 259.574219 57.074219 L 260.152344 56.074219 " fill-opacity="1" fill-rule="nonzero"/><g clip-path="url(#9db7072da2)"><path fill="#daa528" d="M 227.964844 282.03125 L 276.535156 197.921875 L 277.691406 198.589844 L 227.964844 282.03125 " fill-opacity="1" fill-rule="nonzero"/></g><path fill="#daa528" d="M 96.34375 170.21875 L 63.007812 112.476562 C 85.621094 112.476562 108.230469 112.472656 130.84375 112.480469 L 96.921875 171.222656 Z M 65.320312 113.8125 L 96.921875 168.550781 L 128.527344 113.816406 L 65.320312 113.8125 " fill-opacity="1" fill-rule="nonzero"/><path fill="#daa528" d="M 96.347656 112.8125 L 129.6875 55.074219 C 140.867188 74.429688 152.054688 93.78125 163.21875 113.148438 L 146.066406 142.851562 L 129.105469 113.476562 L 130.261719 112.8125 L 146.066406 140.179688 L 161.671875 113.148438 L 129.6875 57.742188 L 97.503906 113.480469 L 96.347656 112.8125 " fill-opacity="1" fill-rule="nonzero"/><path fill="#daa528" d="M 162.445312 113.816406 L 129.6875 113.816406 L 129.6875 112.480469 L 162.445312 112.480469 L 162.445312 113.816406 " fill-opacity="1" fill-rule="nonzero"/><path fill="#daa528" d="M 79.964844 197.925781 L 96.34375 169.554688 L 97.503906 170.21875 L 81.121094 198.589844 L 79.964844 197.925781 " fill-opacity="1" fill-rule="nonzero"/><path fill="#daa528" d="M 146.066406 198.925781 L 80.546875 198.925781 L 80.546875 197.585938 L 146.066406 197.585938 L 146.066406 198.925781 " fill-opacity="1" fill-rule="nonzero"/><path fill="#daa528" d="M 81.121094 197.925781 L 113.304688 253.660156 L 145.488281 197.921875 L 146.644531 198.589844 L 113.304688 256.332031 L 79.964844 198.589844 L 81.121094 197.925781 " fill-opacity="1" fill-rule="nonzero"/><g clip-path="url(#3584d8b361)"><path fill="#daa528" d="M 31.402344 282.03125 L 79.964844 197.925781 L 81.699219 197.585938 L 81.121094 198.589844 L 31.402344 282.03125 " fill-opacity="1" fill-rule="nonzero"/></g><path fill="#daa528" d="M 178.828125 198.925781 L 146.066406 198.925781 L 146.066406 197.585938 L 178.828125 197.585938 L 178.828125 198.925781 " fill-opacity="1" fill-rule="nonzero"/><path fill="#daa528" d="M 145.488281 197.925781 L 161.867188 169.554688 L 163.027344 170.21875 L 146.644531 198.589844 L 145.488281 197.925781 " fill-opacity="1" fill-rule="nonzero"/><path fill="#daa528" d="M 194.628906 226.957031 L 177.671875 197.585938 L 212.746094 197.589844 L 195.210938 227.960938 Z M 179.984375 198.925781 L 195.207031 225.292969 L 210.429688 198.925781 L 179.984375 198.925781 " fill-opacity="1" fill-rule="nonzero"/><path fill="#daa528" d="M 195.207031 114.480469 L 163.601562 169.21875 L 226.8125 169.21875 Z M 161.867188 169.554688 L 195.210938 111.808594 L 229.125 170.554688 C 206.515625 170.554688 183.902344 170.550781 161.289062 170.554688 L 161.867188 169.554688 " fill-opacity="1" fill-rule="nonzero"/><path fill="#daa528" d="M 227.964844 57.742188 L 196.363281 112.480469 L 259.574219 112.476562 Z M 194.628906 112.8125 L 227.96875 55.070312 L 261.886719 113.8125 C 239.273438 113.8125 216.664062 113.808594 194.050781 113.816406 L 194.628906 112.8125 " fill-opacity="1" fill-rule="nonzero"/><path fill="#daa528" d="M 227.390625 113.476562 L 211.007812 85.109375 L 212.167969 84.445312 L 228.546875 112.8125 L 227.390625 113.476562 " fill-opacity="1" fill-rule="nonzero"/><path fill="#daa528" d="M 228.546875 169.550781 L 245.507812 198.925781 L 211.589844 198.925781 L 211.589844 197.585938 L 243.195312 197.585938 L 227.390625 170.222656 L 228.546875 169.550781 " fill-opacity="1" fill-rule="nonzero"/><path fill="#daa528" d="M 243.769531 197.925781 L 292.914062 112.8125 L 294.070312 113.480469 L 244.929688 198.589844 L 243.769531 197.925781 " fill-opacity="1" fill-rule="nonzero"/><path fill="#daa528" d="M 293.492188 113.8125 L 260.730469 113.8125 L 260.730469 112.476562 L 293.492188 112.476562 L 293.492188 113.8125 " fill-opacity="1" fill-rule="nonzero"/><path fill="#daa528" d="M 292.914062 113.476562 L 275.957031 84.105469 L 311.027344 84.105469 L 293.492188 114.480469 Z M 278.265625 85.441406 L 293.492188 111.808594 L 308.71875 85.441406 L 278.265625 85.441406 " fill-opacity="1" fill-rule="nonzero"/><g clip-path="url(#9eaf79f8aa)"><path fill="#daa528" d="M 195.210938 282.03125 L 243.769531 197.925781 L 244.929688 198.589844 L 195.210938 282.03125 " fill-opacity="1" fill-rule="nonzero"/></g><path fill="#daa528" d="M 309.875 198.925781 L 244.351562 198.925781 L 244.351562 197.585938 L 309.875 197.585938 L 309.875 198.925781 " fill-opacity="1" fill-rule="nonzero"/><path fill="#daa528" d="M 277.691406 141.179688 L 310.644531 198.253906 L 293.492188 227.960938 L 276.535156 198.589844 L 277.691406 197.925781 L 293.492188 225.289062 L 309.101562 198.253906 L 276.535156 141.851562 L 277.691406 141.179688 " fill-opacity="1" fill-rule="nonzero"/><path fill="#daa528" d="M 129.105469 56.074219 L 161.484375 0 L 130.261719 56.742188 L 129.105469 56.074219 " fill-opacity="1" fill-rule="nonzero"/><path fill="#daa528" d="M 227.390625 56.070312 L 259.761719 0 L 228.546875 56.742188 L 227.390625 56.070312 " fill-opacity="1" fill-rule="nonzero"/><path fill="#daa528" d="M 325.675781 56.738281 L 308.71875 27.367188 L 343.796875 27.367188 L 326.253906 57.742188 Z M 311.027344 28.699219 L 326.253906 55.070312 L 341.476562 28.699219 L 311.027344 28.699219 " fill-opacity="1" fill-rule="nonzero"/><path fill="#daa528" d="M 47.207031 198.589844 L 30.246094 169.21875 L 65.324219 169.21875 L 47.785156 199.59375 Z M 32.558594 170.550781 L 47.78125 196.921875 L 63.007812 170.550781 L 32.558594 170.550781 " fill-opacity="1" fill-rule="nonzero"/><g clip-path="url(#298d3d0983)"><path fill="#daa528" d="M 47.207031 197.921875 L 47.785156 199.59375 L 0.183594 282.03125 L 47.207031 197.921875 " fill-opacity="1" fill-rule="nonzero"/></g><path fill="#daa528" d="M 292.914062 169.550781 L 374.816406 30.378906 L 294.070312 170.222656 L 292.914062 169.550781 " fill-opacity="1" fill-rule="nonzero"/><path fill="#daa528" d="M 309.296875 197.921875 L 374.816406 87.121094 L 310.453125 198.589844 L 309.296875 197.921875 " fill-opacity="1" fill-rule="nonzero"/></svg>